<svg width="141" height="26" viewBox="0 0 141 26" fill="none" xmlns="http://www.w3.org/2000/svg">
<g clip-path="url(#clip0_12_1069)">
<path d="M20.1469 26H15.0374C14.3884 26 13.8601 25.48 13.8601 24.8413V22.7509C13.8601 22.6475 13.6417 22.488 13.2906 22.3355L13.2337 22.3095C12.563 22.0145 11.9102 21.628 11.3073 21.1669C11.1534 21.0494 10.9471 21.0173 10.8279 21.0858L9.06206 22.0891C8.448 22.4377 7.74323 22.2104 7.43063 21.6777L4.87576 17.3225C4.71843 17.0544 4.67674 16.7424 4.75805 16.4434C4.83965 16.1441 5.03426 15.8942 5.30695 15.7394L5.58228 16.1109L5.34834 15.7157L5.46986 15.6469L5.73756 16.0228L5.50479 15.6273L6.90345 14.8328C7.32789 14.5902 7.32789 14.5902 7.29091 14.3305C7.23191 13.9358 7.20578 13.5285 7.20578 13.0296V12.971C7.20578 12.4724 7.23191 12.065 7.28827 11.6898L7.29208 11.6626C7.32789 11.4101 7.32789 11.4101 6.88789 11.1591L5.50567 10.3736L5.70996 9.96193L5.47808 10.358L5.34892 10.2846L5.5541 9.87353L5.30666 10.2606C4.74484 9.94142 4.55141 9.23134 4.87605 8.67813L7.43092 4.32289C7.6405 3.96524 8.03148 3.74338 8.45123 3.74338C8.65699 3.74338 8.8604 3.79711 9.03916 3.89851L10.8329 4.9177C10.953 4.98212 11.1558 4.94948 11.3075 4.83335C11.9099 4.37286 12.563 3.98604 13.2484 3.68387L13.2909 3.6648C13.642 3.51227 13.8604 3.3531 13.8604 3.24939V1.15901C13.8604 0.519994 14.3887 0 15.0377 0H20.1472C20.7964 0 21.3245 0.519994 21.3245 1.15901V3.24939C21.3245 3.35281 21.5432 3.51198 21.8945 3.6648L21.9447 3.68763C22.6266 3.98864 23.2768 4.37402 23.8779 4.83335C24.0294 4.94919 24.2316 4.98154 24.3522 4.9177L26.1378 3.90313C26.7313 3.57178 27.4428 3.79249 27.7545 4.32231L30.3091 8.67784C30.6332 9.23134 30.44 9.94113 29.8779 10.2606L28.7009 10.9297L28.4364 10.5518L28.6695 10.9473L28.3105 11.1516C27.8573 11.4101 27.8573 11.4101 27.8942 11.6701L27.8989 11.7036C27.9541 12.0832 27.9788 12.483 27.9788 12.971L27.9785 13.0001L27.9788 13.0296C27.9788 13.5265 27.953 13.9318 27.8975 14.3045L27.8972 14.3091C27.8573 14.5907 27.8573 14.5907 28.297 14.8418L28.6695 15.0533L28.4663 15.4652L28.6994 15.07L29.6801 15.6273L29.4752 16.0389L29.7071 15.6426L29.8847 15.744C30.1503 15.8945 30.3452 16.1447 30.4265 16.444C30.5081 16.7429 30.4664 17.0549 30.3094 17.323L27.7542 21.6774C27.5444 22.035 27.1531 22.2569 26.7333 22.2569C26.5276 22.2569 26.3242 22.2032 26.1454 22.1018L24.3596 21.0869C24.2316 21.0141 24.0311 21.0494 23.8776 21.1664C23.2785 21.6242 22.631 22.0085 21.9527 22.3086L21.886 22.3384C21.5423 22.488 21.3236 22.6472 21.3236 22.7509V24.8413C21.3242 25.48 20.7961 26 20.1469 26ZM13.6658 21.4989C14.148 21.7089 14.7891 22.0665 14.7891 22.7509V24.8413C14.7891 24.9759 14.9003 25.086 15.0374 25.086H20.1469C20.2839 25.086 20.3958 24.9759 20.3958 24.8413V22.7509C20.3958 22.0665 21.0371 21.7089 21.5191 21.4989L21.557 21.4815C22.174 21.2103 22.7625 20.8613 23.3079 20.4447C23.754 20.1033 24.3784 20.0426 24.8204 20.2931L25.5578 20.7117L25.3585 21.1268L25.5889 20.7301L25.9922 20.9592L25.8029 21.3793L26.035 20.9835L26.6048 21.3073C26.6556 21.3339 26.6937 21.3429 26.7333 21.3429C26.8226 21.3429 26.9054 21.2958 26.9494 21.2201L29.504 16.8654C29.5371 16.8088 29.5462 16.7429 29.5286 16.6797C29.5116 16.6167 29.4708 16.5641 29.413 16.5312L27.8446 15.64C27.1458 15.2413 26.8725 14.9573 26.9705 14.2253L26.9752 14.1901C27.0263 13.848 27.0495 13.4835 27.0495 13.0293L27.0498 13.0001L27.0501 12.9707C27.0501 12.5168 27.0269 12.152 26.9776 11.8226L26.9723 11.7808C26.8687 11.0467 27.1413 10.7613 27.8311 10.3678L28.294 10.1046L28.5556 10.4837L28.3231 10.0882L29.2154 9.58118L29.4749 9.96136L29.2433 9.56529L29.3968 9.47776C29.5318 9.40092 29.5729 9.25099 29.5043 9.13399L26.9497 4.77904C26.883 4.6655 26.7284 4.62246 26.6101 4.68948L25.5889 5.26956L25.3423 4.88188L25.5625 5.28459L24.7981 5.71791C24.3235 5.9678 23.7417 5.88691 23.3079 5.55469C22.7637 5.13899 22.1751 4.7903 21.5584 4.51875L21.5335 4.50691C21.0357 4.29024 20.3958 3.9326 20.3958 3.2491V1.15872C20.3958 1.02381 20.2839 0.914034 20.1469 0.914034H15.0374C14.9003 0.914034 14.7891 1.02352 14.7891 1.15872V3.2491C14.7891 3.93347 14.148 4.29111 13.6658 4.50084L13.4456 4.09727L13.6379 4.51326C13.01 4.79001 12.4209 5.13899 11.877 5.55469C11.4308 5.89616 10.8062 5.95682 10.3644 5.70665L9.62681 5.28747L9.82611 4.87263L9.59569 5.26956L8.59388 4.70017C8.53605 4.66724 8.49467 4.65626 8.45093 4.65626C8.36199 4.65626 8.27951 4.70335 8.23519 4.77875L5.68002 9.13485C5.64686 9.19147 5.63805 9.25763 5.65537 9.32061C5.67269 9.38358 5.71378 9.43616 5.77102 9.4691L7.33846 10.3597C8.04528 10.763 8.31708 11.049 8.21053 11.7975L8.20642 11.8261C8.1574 12.1534 8.13451 12.5183 8.13451 12.9713L8.1348 13.0074C8.13451 13.4829 8.1574 13.8477 8.20672 14.1779L8.21083 14.2088C8.31708 14.9521 8.04498 15.2379 7.35343 15.6328L5.78804 16.5217C5.71378 16.5638 5.67269 16.6167 5.65537 16.6797C5.63805 16.7429 5.64686 16.8085 5.68002 16.8651L8.23519 21.2204C8.30211 21.3348 8.4571 21.3767 8.5748 21.3102L9.59599 20.7299L9.84284 21.1173L9.62857 20.7114L10.3853 20.2824C10.5476 20.1899 10.7616 20.1348 10.9838 20.1348C11.2984 20.1348 11.6158 20.2451 11.8773 20.445C12.4186 20.8593 13.0041 21.2065 13.6182 21.4775L13.6437 21.4893L13.6059 21.5676L13.4785 21.9175L13.6658 21.4989Z" fill="#69EB02"/>
<path d="M17.5923 21.0878C13.0772 21.0878 9.40399 17.473 9.40399 13.0293C9.40399 8.5857 13.0772 4.97058 17.5923 4.97058C22.1073 4.97058 25.7805 8.5857 25.7805 13.0293C25.7805 17.473 22.1073 21.0878 17.5923 21.0878ZM17.5923 5.8849C13.5894 5.8849 10.333 9.09009 10.333 13.0296C10.333 16.9692 13.5894 20.1741 17.5923 20.1741C21.5954 20.1741 24.8518 16.9689 24.8518 13.0296C24.8518 9.0898 21.5954 5.8849 17.5923 5.8849Z" fill="#69EB02"/>
<path fill-rule="evenodd" clip-rule="evenodd" d="M20.8094 16.3495L20.089 15.6406L22.6099 13.1599L20.089 10.6787L20.8094 9.96975L24.0505 13.1599L20.8094 16.3495ZM16.1936 16.1672L18.406 9.65082H19.4248L17.2125 16.1672H16.1936ZM14.6655 16.0987L11.4244 12.9092L14.6655 9.71928L15.3858 10.4282L12.865 12.9092L15.3858 15.3901L14.6655 16.0987Z" fill="#69EB02"/>
<path d="M55.3037 23.2287C55.6151 24.1046 55.2698 25.0762 54.4712 25.5697C53.673 26.0635 52.634 25.9481 51.9671 25.292L44.3633 17.8085C43.5739 17.0318 43.5739 15.7725 44.3633 14.9958C45.1525 14.2192 46.432 14.2192 47.2212 14.9958L48.5631 16.3165L45.7925 8.52509L40.0962 24.543C39.8047 25.3624 39.0236 25.8754 38.1887 25.8754C37.9672 25.8756 37.7421 25.8393 37.5211 25.7632C36.4677 25.4005 35.9127 24.2658 36.2812 23.2291L43.885 1.84777C44.1687 1.04993 44.9336 0.515869 45.7925 0.515869C46.6513 0.515869 47.4162 1.0499 47.6999 1.84777L55.3037 23.2287ZM71.0986 7.43885C72.0967 7.92987 72.5013 9.12469 72.0022 10.107L64.5501 24.7754C64.2079 25.4492 63.5081 25.8748 62.7427 25.8748C61.9773 25.8748 61.2775 25.4492 60.9353 24.7754L53.4832 10.107C52.984 9.12451 53.3887 7.92982 54.3868 7.43858C55.385 6.94733 56.5989 7.34536 57.0981 8.32814L62.7428 19.4391L68.3875 8.32904C68.8865 7.34629 70.1003 6.94869 71.0988 7.43948L71.0986 7.43885ZM75.778 7.22873C76.8941 7.22873 77.7989 8.11927 77.7989 9.21761V23.8861C77.7989 24.9845 76.894 25.8749 75.778 25.8749C74.662 25.8749 73.7572 24.9844 73.7572 23.8861V9.21761C73.7572 8.1192 74.662 7.22873 75.778 7.22873ZM73.9112 3.26546C73.8607 3.14613 73.8228 3.0193 73.7976 2.8925C73.7698 2.7657 73.7572 2.63392 73.7572 2.50465C73.7572 2.37538 73.7698 2.2436 73.7976 2.1168C73.8228 1.99001 73.8607 1.86321 73.9112 1.74388C73.9618 1.62454 74.0249 1.50769 74.0982 1.40078C74.1714 1.29139 74.2548 1.18946 74.3482 1.09748C74.4417 1.0055 74.5453 0.923454 74.6564 0.851353C74.765 0.779253 74.8838 0.717094 75.005 0.66739C75.1263 0.617686 75.2551 0.580394 75.3839 0.55552C76.0407 0.423734 76.738 0.637564 77.2079 1.09752C77.2988 1.1895 77.3847 1.29142 77.4579 1.40081C77.5312 1.50773 77.5944 1.62458 77.6449 1.74391C77.6954 1.86325 77.7333 1.99004 77.7585 2.11684C77.7863 2.24363 77.7989 2.37542 77.7989 2.50469C77.7989 2.63395 77.7863 2.76574 77.7585 2.89254C77.7333 3.01933 77.6954 3.14613 77.6449 3.26546C77.5943 3.38479 77.5312 3.50164 77.4579 3.60856C77.3847 3.71795 77.2988 3.81987 77.2079 3.91186C77.1144 4.00384 77.0108 4.08588 76.8997 4.15798C76.7911 4.23008 76.6723 4.29224 76.5511 4.34195C76.4298 4.39165 76.301 4.42894 76.1722 4.45382C76.0433 4.48116 75.9094 4.49358 75.7781 4.49358C75.6467 4.49358 75.5128 4.48117 75.384 4.45382C75.2552 4.42895 75.1263 4.39166 75.0051 4.34195C74.8838 4.29224 74.7651 4.23008 74.6565 4.15798C74.5453 4.08588 74.4417 4.00384 74.3483 3.91186C74.2548 3.81987 74.1715 3.71795 74.0982 3.60856C74.0249 3.50164 73.9618 3.38479 73.9113 3.26546H73.9112ZM88.8473 7.22873C89.9633 7.22873 90.8681 8.11927 90.8681 9.21761C90.8681 10.316 89.9633 11.2065 88.8473 11.2065C85.8525 11.2065 83.416 13.6044 83.416 16.5518V23.8861C83.416 24.9845 82.5112 25.8749 81.3952 25.8749C80.2792 25.8749 79.3743 24.9844 79.3743 23.8861V9.21761C79.3743 8.1192 80.2792 7.22873 81.3952 7.22873C82.414 7.22873 83.2541 7.97135 83.3936 8.93594C84.9368 7.86217 86.8178 7.22873 88.8473 7.22873ZM103.864 20.3314C104.653 19.5548 105.933 19.5546 106.722 20.3315C107.511 21.1082 107.511 22.3675 106.722 23.1442C104.933 24.9051 102.554 25.8748 100.023 25.8748C94.7995 25.8748 90.5503 21.6927 90.5503 16.5517C90.5503 11.4106 94.7995 7.22856 100.023 7.22856C102.554 7.22856 104.932 8.19819 106.721 9.95938C107.511 10.7361 107.511 11.9954 106.721 12.7721C105.932 13.5487 104.653 13.5487 103.864 12.7721C102.838 11.7624 101.474 11.2065 100.023 11.2065C97.0285 11.2065 94.5919 13.6044 94.5919 16.5518C94.5919 19.4993 97.0284 21.8972 100.023 21.8972C101.474 21.8972 102.838 21.3413 103.864 20.3316L103.864 20.3314ZM125.791 7.22873C126.907 7.22873 127.812 8.11927 127.812 9.21761V16.5518C127.812 21.6929 123.563 25.8749 118.339 25.8749C113.115 25.8749 108.866 21.6929 108.866 16.5518V9.21761C108.866 8.1192 109.771 7.22873 110.887 7.22873C112.003 7.22873 112.908 8.11927 112.908 9.21761V16.5518C112.908 19.4992 115.344 21.8972 118.339 21.8972C121.334 21.8972 123.77 19.4993 123.77 16.5518V9.21761C123.77 8.1192 124.675 7.22873 125.791 7.22873ZM138.979 21.8972C140.095 21.8972 141 22.7878 141 23.8861C141 24.9845 140.095 25.875 138.979 25.875C133.672 25.875 129.354 21.6256 129.354 16.4025V2.50478C129.354 1.40636 130.259 0.515897 131.375 0.515897C132.491 0.515897 133.396 1.40644 133.396 2.50478V7.23398H138.979C140.095 7.23398 141 8.12452 141 9.22286C141 10.3212 140.095 11.2117 138.979 11.2117H133.396V16.4024C133.396 19.4321 135.901 21.897 138.979 21.897L138.979 21.8972Z" fill="#404040"/>
</g>
<defs>
<clipPath id="clip0_12_1069">
<rect width="141" height="26" fill="white"/>
</clipPath>
</defs>
</svg>
